<?xml version="1.0" standalone="no"?>
<!DOCTYPE svg PUBLIC "-//W3C//DTD SVG 20010904//EN"
 "http://www.w3.org/TR/2001/REC-SVG-20010904/DTD/svg10.dtd">
<svg version="1.0" xmlns="http://www.w3.org/2000/svg"
 width="700.000000pt" height="700.000000pt" viewBox="0 0 700.000000 700.000000"
 preserveAspectRatio="xMidYMid meet">
<metadata>
Created by potrace 1.11, written by Peter Selinger 2001-2013
</metadata>
<g transform="translate(0.000000,700.000000) scale(0.100000,-0.100000)"
fill="#000000" stroke="none">
<path d="M3298 6995 c-2 -1 -41 -5 -88 -9 -100 -7 -225 -22 -295 -36 -27 -5
-61 -12 -75 -14 -596 -109 -1206 -409 -1660 -817 -126 -114 -178 -166 -331
-335 -107 -118 -286 -370 -386 -545 -158 -274 -309 -656 -369 -932 -20 -90
-53 -272 -59 -322 -4 -33 -9 -69 -11 -80 -18 -95 -25 -522 -12 -690 8 -104 25
-233 42 -320 2 -11 6 -36 10 -55 49 -272 156 -595 283 -857 365 -755 979
-1348 1747 -1687 152 -68 380 -147 516 -181 49 -12 158 -37 175 -41 101 -20
186 -35 238 -40 34 -3 65 -8 68 -9 15 -10 227 -20 409 -20 188 0 341 8 430 21
144 21 295 48 345 61 33 8 67 16 75 18 109 22 388 117 549 187 121 53 308 148
353 179 14 11 29 19 33 19 25 0 384 257 494 354 121 106 294 279 366 366 21
25 41 47 44 50 4 3 45 55 91 115 332 436 547 915 654 1456 14 70 28 155 32
190 3 35 8 67 10 70 9 17 19 214 18 399 0 188 -6 331 -19 420 -3 19 -7 56 -10
81 -3 25 -7 54 -9 65 -2 10 -11 60 -21 109 -85 456 -276 915 -543 1305 -56 82
-194 265 -211 280 -3 3 -35 38 -70 78 -309 353 -747 675 -1172 863 -255 112
-590 217 -814 253 -54 9 -239 35 -295 41 -55 7 -526 16 -532 10z m302 -655
c50 -157 95 -296 100 -310 5 -14 50 -153 100 -310 50 -157 118 -366 150 -465
50 -155 190 -590 237 -738 l16 -48 1131 1 c622 1 1137 1 1144 1 12 -1 -235
-181 -1223 -894 -137 -100 -251 -184 -253 -189 -2 -4 -8 -8 -13 -8 -6 0 -15
-5 -22 -10 -7 -6 -70 -53 -142 -105 -71 -52 -142 -105 -158 -118 l-28 -22 71
-215 c39 -118 108 -330 154 -470 47 -140 155 -471 241 -735 178 -545 230 -702
241 -729 6 -16 4 -17 -13 -7 -11 6 -99 68 -194 138 -96 69 -230 167 -299 217
-69 50 -132 96 -140 103 -8 7 -112 82 -230 168 -118 86 -226 165 -240 175 -30
23 -140 103 -377 275 -98 71 -182 133 -188 138 -26 22 -161 117 -166 117 -3 0
-44 -28 -90 -63 -46 -34 -151 -111 -234 -171 -82 -60 -231 -169 -330 -241
-763 -558 -1187 -866 -1190 -863 -1 1 14 55 35 118 79 239 233 711 380 1160
84 256 171 524 195 595 98 299 98 298 81 307 -8 5 -34 23 -58 41 -24 18 -202
147 -396 287 -193 140 -376 272 -405 293 -28 21 -66 48 -84 60 -51 36 -237
170 -248 180 -5 4 -147 107 -315 228 -168 121 -310 225 -317 232 -10 9 235 11
1130 9 l1142 -3 17 48 c9 26 53 163 98 303 45 140 92 287 105 325 13 39 55
171 95 295 39 124 80 250 90 280 45 135 123 376 124 385 3 16 157 487 168 515
6 14 12 21 14 15 1 -5 44 -138 94 -295z"/>
</g>
</svg>
